<svg width="84" height="11" viewBox="0 0 84 11" fill="none" xmlns="http://www.w3.org/2000/svg">
<line x1="4.5" x2="4.5" y2="9" stroke="#3040CF"/>
<line y1="4.5" x2="9" y2="4.5" stroke="#3040CF"/>
<path d="M13.2379 10.7543V7.77486H13.7315C13.8996 7.65412 14.0535 7.48366 14.1932 7.26349C14.3329 7.04096 14.4524 6.73438 14.5518 6.34375C14.6513 5.95076 14.7223 5.43703 14.7649 4.80256L14.9709 1.72727H19.7827V7.77486H20.5781V10.7472H19.1009V9H14.7152V10.7543H13.2379ZM15.5071 7.77486H18.3054V2.99503H16.3558L16.2422 4.80256C16.2114 5.28314 16.1605 5.70928 16.0895 6.08097C16.0208 6.45265 15.9368 6.77817 15.8374 7.05753C15.7403 7.33452 15.6302 7.57363 15.5071 7.77486ZM23.949 9.10653C23.3974 9.10653 22.9204 8.98935 22.5179 8.75497C22.1178 8.51823 21.8089 8.18916 21.5911 7.76776C21.3733 7.34399 21.2644 6.85275 21.2644 6.29403C21.2644 5.73059 21.3733 5.23816 21.5911 4.81676C21.8089 4.39299 22.1178 4.06392 22.5179 3.82955C22.9204 3.5928 23.3974 3.47443 23.949 3.47443C24.5007 3.47443 24.9765 3.5928 25.3766 3.82955C25.7791 4.06392 26.0892 4.39299 26.307 4.81676C26.5248 5.23816 26.6337 5.73059 26.6337 6.29403C26.6337 6.85275 26.5248 7.34399 26.307 7.76776C26.0892 8.18916 25.7791 8.51823 25.3766 8.75497C24.9765 8.98935 24.5007 9.10653 23.949 9.10653ZM23.9561 7.93466C24.2071 7.93466 24.4166 7.86364 24.5847 7.72159C24.7528 7.57718 24.8794 7.38068 24.9647 7.1321C25.0523 6.88352 25.0961 6.60062 25.0961 6.28338C25.0961 5.96615 25.0523 5.68324 24.9647 5.43466C24.8794 5.18608 24.7528 4.98958 24.5847 4.84517C24.4166 4.70076 24.2071 4.62855 23.9561 4.62855C23.7028 4.62855 23.4898 4.70076 23.3169 4.84517C23.1465 4.98958 23.0175 5.18608 22.9299 5.43466C22.8446 5.68324 22.802 5.96615 22.802 6.28338C22.802 6.60062 22.8446 6.88352 22.9299 7.1321C23.0175 7.38068 23.1465 7.57718 23.3169 7.72159C23.4898 7.86364 23.7028 7.93466 23.9561 7.93466ZM32.1522 1.54261L32.6138 2.52983C32.4599 2.65767 32.2895 2.75237 32.1025 2.81392C31.9154 2.87311 31.6917 2.91217 31.4313 2.93111C31.1732 2.95005 30.8584 2.96307 30.4867 2.97017C30.0653 2.97491 29.722 3.04238 29.4569 3.17259C29.1917 3.30279 28.9905 3.50758 28.8532 3.78693C28.7158 4.06392 28.6259 4.42614 28.5833 4.87358H28.6365C28.7999 4.53977 29.0295 4.28172 29.3255 4.09943C29.6238 3.91714 29.9919 3.82599 30.4299 3.82599C30.8939 3.82599 31.2999 3.92779 31.6479 4.13139C31.9983 4.33499 32.2705 4.62737 32.4647 5.00852C32.6588 5.38968 32.7559 5.84659 32.7559 6.37926C32.7559 6.93324 32.647 7.41501 32.4292 7.82457C32.2137 8.23177 31.9071 8.54782 31.5094 8.77273C31.1117 8.99527 30.6382 9.10653 30.089 9.10653C29.5373 9.10653 29.0615 8.99053 28.6614 8.75852C28.2637 8.52652 27.9559 8.18442 27.7381 7.73224C27.5227 7.28007 27.415 6.72372 27.415 6.06321V5.61577C27.415 4.30185 27.6706 3.32765 28.182 2.69318C28.6934 2.05871 29.445 1.73674 30.437 1.72727C30.7069 1.72254 30.9507 1.72135 31.1685 1.72372C31.3863 1.72609 31.5769 1.71544 31.7402 1.69176C31.906 1.66809 32.0433 1.61837 32.1522 1.54261ZM30.0961 7.93466C30.3281 7.93466 30.5269 7.87429 30.6926 7.75355C30.8607 7.63281 30.9898 7.45999 31.0797 7.23509C31.1721 7.01018 31.2182 6.74148 31.2182 6.42898C31.2182 6.11884 31.1721 5.85606 31.0797 5.64062C30.9898 5.42282 30.8607 5.2571 30.6926 5.14347C30.5246 5.02983 30.3233 4.97301 30.089 4.97301C29.9138 4.97301 29.7563 5.00497 29.6167 5.06889C29.477 5.13281 29.3574 5.22751 29.258 5.35298C29.1609 5.47609 29.0852 5.62879 29.0307 5.81108C28.9786 5.991 28.9526 6.19697 28.9526 6.42898C28.9526 6.89536 29.0532 7.26349 29.2544 7.53338C29.458 7.8009 29.7386 7.93466 30.0961 7.93466ZM35.3153 9.10298C34.9673 9.10298 34.6572 9.04261 34.3849 8.92188C34.1127 8.79877 33.8973 8.61766 33.7386 8.37855C33.5824 8.13707 33.5043 7.83641 33.5043 7.47656C33.5043 7.17353 33.5599 6.91903 33.6712 6.71307C33.7824 6.5071 33.9339 6.34138 34.1257 6.21591C34.3175 6.09044 34.5353 5.99574 34.7791 5.93182C35.0253 5.8679 35.2834 5.82292 35.5533 5.79688C35.8705 5.76373 36.1262 5.73295 36.3203 5.70455C36.5144 5.67377 36.6553 5.62879 36.7429 5.5696C36.8305 5.51042 36.8743 5.42282 36.8743 5.30682V5.28551C36.8743 5.06061 36.8033 4.8866 36.6612 4.76349C36.5215 4.64039 36.3227 4.57884 36.0646 4.57884C35.7924 4.57884 35.5758 4.6392 35.4148 4.75994C35.2538 4.87831 35.1473 5.02746 35.0952 5.20739L33.696 5.09375C33.767 4.76231 33.9067 4.47585 34.1151 4.23438C34.3234 3.99053 34.5921 3.8035 34.9212 3.6733C35.2526 3.54072 35.6361 3.47443 36.0717 3.47443C36.3748 3.47443 36.6648 3.50994 36.9418 3.58097C37.2211 3.65199 37.4685 3.76207 37.6839 3.91122C37.9018 4.06037 38.0734 4.25213 38.1989 4.48651C38.3243 4.71851 38.3871 4.99669 38.3871 5.32102V9H36.9524V8.24361H36.9098C36.8222 8.41406 36.705 8.56439 36.5582 8.6946C36.4115 8.82244 36.2351 8.92306 36.0291 8.99645C35.8232 9.06747 35.5852 9.10298 35.3153 9.10298ZM35.7486 8.05895C35.9711 8.05895 36.1676 8.01515 36.3381 7.92756C36.5085 7.83759 36.6423 7.71686 36.7393 7.56534C36.8364 7.41383 36.8849 7.24219 36.8849 7.05043V6.47159C36.8376 6.50237 36.7725 6.53078 36.6896 6.55682C36.6091 6.58049 36.518 6.60298 36.4162 6.62429C36.3144 6.64323 36.2126 6.66098 36.1108 6.67756C36.009 6.69176 35.9167 6.70478 35.8338 6.71662C35.6563 6.74266 35.5012 6.78409 35.3686 6.84091C35.236 6.89773 35.133 6.97467 35.0597 7.07173C34.9863 7.16643 34.9496 7.2848 34.9496 7.42685C34.9496 7.63281 35.0241 7.79025 35.1733 7.89915C35.3248 8.00568 35.5166 8.05895 35.7486 8.05895ZM39.5607 9V3.54545H41.8867C42.5591 3.54545 43.0906 3.6733 43.4812 3.92898C43.8718 4.18466 44.0671 4.54806 44.0671 5.01918C44.0671 5.3151 43.957 5.56132 43.7369 5.75781C43.5167 5.95431 43.2113 6.08688 42.8207 6.15554C43.1474 6.17921 43.4255 6.25379 43.6552 6.37926C43.8872 6.50237 44.0636 6.66217 44.1843 6.85866C44.3074 7.05516 44.369 7.27296 44.369 7.51207C44.369 7.82221 44.2861 8.08854 44.1204 8.31108C43.957 8.53362 43.7167 8.70407 43.3995 8.82244C43.0846 8.94081 42.6999 9 42.2454 9H39.5607ZM40.9705 7.86719H42.2454C42.4561 7.86719 42.6206 7.81747 42.739 7.71804C42.8597 7.61624 42.9201 7.47775 42.9201 7.30256C42.9201 7.10843 42.8597 6.95573 42.739 6.84446C42.6206 6.73319 42.4561 6.67756 42.2454 6.67756H40.9705V7.86719ZM40.9705 5.78977H41.9187C42.0702 5.78977 42.1992 5.76847 42.3058 5.72585C42.4147 5.68087 42.4975 5.61695 42.5543 5.53409C42.6135 5.45123 42.6431 5.35298 42.6431 5.23935C42.6431 5.07126 42.5756 4.93987 42.4407 4.84517C42.3058 4.75047 42.1211 4.70312 41.8867 4.70312H40.9705V5.78977ZM46.7678 7.00426L48.7315 3.54545H50.223V9H48.7812V5.53054L46.8246 9H45.3224V3.54545H46.7678V7.00426ZM50.888 4.73509V3.54545H55.8311V4.73509H54.0733V9H52.6316V4.73509H50.888ZM57.6964 5.22159H59.3263C60.0484 5.22159 60.6119 5.39441 61.0167 5.74006C61.4215 6.08333 61.6239 6.54261 61.6239 7.1179C61.6239 7.49195 61.5328 7.82102 61.3505 8.10511C61.1682 8.38684 60.9054 8.60701 60.5621 8.76562C60.2189 8.92188 59.8069 9 59.3263 9H56.7482V3.54545H58.1935V7.81037H59.3263C59.5797 7.81037 59.788 7.74645 59.9513 7.61861C60.1147 7.49077 60.1976 7.32741 60.1999 7.12855C60.1976 6.91785 60.1147 6.74621 59.9513 6.61364C59.788 6.47869 59.5797 6.41122 59.3263 6.41122H57.6964V5.22159ZM64.9416 3.54545H66.3869V7.79972H67.9245V3.54545H69.3699V7.79972H70.9075V3.54545H72.3528V9H64.9416V3.54545ZM75.081 9.10298C74.733 9.10298 74.4228 9.04261 74.1506 8.92188C73.8783 8.79877 73.6629 8.61766 73.5043 8.37855C73.348 8.13707 73.2699 7.83641 73.2699 7.47656C73.2699 7.17353 73.3255 6.91903 73.4368 6.71307C73.5481 6.5071 73.6996 6.34138 73.8913 6.21591C74.0831 6.09044 74.3009 5.99574 74.5447 5.93182C74.791 5.8679 75.049 5.82292 75.3189 5.79688C75.6361 5.76373 75.8918 5.73295 76.0859 5.70455C76.2801 5.67377 76.4209 5.62879 76.5085 5.5696C76.5961 5.51042 76.6399 5.42282 76.6399 5.30682V5.28551C76.6399 5.06061 76.5689 4.8866 76.4268 4.76349C76.2872 4.64039 76.0883 4.57884 75.8303 4.57884C75.558 4.57884 75.3414 4.6392 75.1804 4.75994C75.0194 4.87831 74.9129 5.02746 74.8608 5.20739L73.4616 5.09375C73.5327 4.76231 73.6723 4.47585 73.8807 4.23438C74.089 3.99053 74.3577 3.8035 74.6868 3.6733C75.0182 3.54072 75.4018 3.47443 75.8374 3.47443C76.1404 3.47443 76.4304 3.50994 76.7074 3.58097C76.9867 3.65199 77.2341 3.76207 77.4496 3.91122C77.6674 4.06037 77.839 4.25213 77.9645 4.48651C78.09 4.71851 78.1527 4.99669 78.1527 5.32102V9H76.718V8.24361H76.6754C76.5878 8.41406 76.4706 8.56439 76.3239 8.6946C76.1771 8.82244 76.0007 8.92306 75.7947 8.99645C75.5888 9.06747 75.3509 9.10298 75.081 9.10298ZM75.5142 8.05895C75.7367 8.05895 75.9332 8.01515 76.1037 7.92756C76.2741 7.83759 76.4079 7.71686 76.505 7.56534C76.602 7.41383 76.6506 7.24219 76.6506 7.05043V6.47159C76.6032 6.50237 76.5381 6.53078 76.4553 6.55682C76.3748 6.58049 76.2836 6.60298 76.1818 6.62429C76.08 6.64323 75.9782 6.66098 75.8764 6.67756C75.7746 6.69176 75.6823 6.70478 75.5994 6.71662C75.4219 6.74266 75.2668 6.78409 75.1342 6.84091C75.0017 6.89773 74.8987 6.97467 74.8253 7.07173C74.7519 7.16643 74.7152 7.2848 74.7152 7.42685C74.7152 7.63281 74.7898 7.79025 74.9389 7.89915C75.0904 8.00568 75.2822 8.05895 75.5142 8.05895ZM83.0621 3.54545V4.73509H80.7965V9H79.3263V3.54545H83.0621Z" fill="#3040CF"/>
</svg>
