<svg width="20" height="20" viewBox="0 0 20 20" fill="none" xmlns="http://www.w3.org/2000/svg">
<path d="M11.8678 2.0402C14.5734 2.86634 16.556 5.36456 16.556 8.34459C16.556 10.4001 16.9461 11.53 17.2502 12.082C17.3702 12.3 17.4747 12.4248 17.5353 12.4866C18.3814 12.7813 18.9445 13.6172 18.869 14.5384C18.784 15.5761 17.9169 16.375 16.8757 16.375H2.66406C1.55949 16.375 0.664062 15.4796 0.664062 14.375C0.664062 13.414 1.34187 12.6113 2.2455 12.4189C2.38185 12.2345 2.56056 11.9051 2.7375 11.4237C3.1246 10.3704 3.31026 9.13136 3.27704 8.44068C3.27551 8.40867 3.27474 8.37664 3.27474 8.34459C3.27474 5.30404 5.33867 2.76506 8.12859 1.99195C8.12621 1.95327 8.125 1.91428 8.125 1.875C8.125 0.839466 8.96447 0 10 0C11.0355 0 11.875 0.839466 11.875 1.875C11.875 1.93067 11.8726 1.98577 11.8678 2.0402ZM2.14611 12.5349C2.14611 12.5349 2.15049 12.53 2.15934 12.5228C2.15055 12.5317 2.14611 12.5349 2.14611 12.5349ZM2.66406 14.375H16.8757C16.5236 14.3169 15.744 13.8001 15.1858 12.375C14.8245 11.4527 14.556 10.1498 14.556 8.34459C14.556 5.80707 12.4783 3.75 9.91534 3.75C7.3524 3.75 5.27474 5.80707 5.27474 8.34459C5.32648 9.42044 5.04027 11.0721 4.51402 12.375C4.05701 13.5065 3.41898 14.375 2.66406 14.375ZM17.6004 12.5437C17.6004 12.5437 17.5948 12.5406 17.5839 12.5316C17.595 12.5388 17.6004 12.5437 17.6004 12.5437Z" fill="#1D262A"/>
<path d="M4.66261 2.67506C5.10443 2.34369 5.19398 1.71689 4.86261 1.27506C4.53123 0.833231 3.90443 0.743688 3.46261 1.07506C1.21856 2.75809 0.391215 5.05892 0.257827 6.12602C0.189325 6.67404 0.578051 7.17383 1.12607 7.24234C1.67409 7.31084 2.17388 6.92211 2.24238 6.37409C2.31733 5.77453 2.90665 3.99203 4.66261 2.67506Z" fill="#1D262A"/>
<path d="M7.76702 17.1343C8.24508 16.8578 8.85681 17.0211 9.13335 17.4992C9.30776 17.8007 9.6313 17.9999 10.0002 17.9999C10.3691 17.9999 10.6926 17.8007 10.867 17.4992C11.1436 17.0211 11.7553 16.8578 12.2333 17.1343C12.7114 17.4109 12.8748 18.0226 12.5982 18.5006C12.081 19.3947 11.1119 19.9999 10.0002 19.9999C8.8885 19.9999 7.91934 19.3947 7.40214 18.5006C7.1256 18.0226 7.28896 17.4109 7.76702 17.1343Z" fill="#1D262A"/>
<path d="M18.7867 7.72893C18.2384 7.79499 17.7403 7.40404 17.6743 6.85572C17.4117 4.67653 16.1627 3.27492 15.6809 2.91023C15.2406 2.5769 15.1538 1.9497 15.4871 1.50936C15.8205 1.06901 16.4477 0.982258 16.888 1.31559C17.7455 1.96466 19.3244 3.83158 19.6599 6.61649C19.726 7.16481 19.335 7.66287 18.7867 7.72893Z" fill="#1D262A"/>
</svg>
