<svg width="16" height="16" viewBox="0 0 16 16" fill="none" xmlns="http://www.w3.org/2000/svg">
<path fill-rule="evenodd" clip-rule="evenodd" d="M2.5 8C3.05228 8 3.5 8.44771 3.5 9V14H12.5V9C12.5 8.44771 12.9477 8 13.5 8C14.0523 8 14.5 8.44771 14.5 9V14C14.5 15.1046 13.6046 16 12.5 16H3.5C2.39543 16 1.5 15.1046 1.5 14V9C1.5 8.44771 1.94772 8 2.5 8Z" fill="#525C60"/>
<path fill-rule="evenodd" clip-rule="evenodd" d="M6.76417 0.42735C7.48939 -0.14245 8.51021 -0.14245 9.23542 0.42735L15.6176 5.44181C16.0519 5.78302 16.1273 6.41168 15.7861 6.84595C15.4449 7.28023 14.8163 7.35567 14.382 7.01446L7.9998 2L1.61761 7.01446C1.18334 7.35567 0.554682 7.28023 0.213473 6.84595C-0.127735 6.41168 -0.0522899 5.78302 0.381985 5.44181L6.76417 0.42735Z" fill="#525C60"/>
</svg>
