<svg width="14" height="14" viewBox="0 0 14 14" fill="none" xmlns="http://www.w3.org/2000/svg">
<path d="M1.98305 11.5213L2.89007 9.62661C2.80116 9.5051 2.72493 9.37883 2.66137 9.24779C2.59782 9.11675 2.53947 8.9826 2.48633 8.84534L0.423539 8.48983L0.593402 4.92294L2.6841 4.75464C2.71603 4.68484 2.75104 4.62023 2.78914 4.56083L3.0265 4.19069C3.06459 4.13129 3.1087 4.07251 3.15882 4.01437L2.43955 2.0441L5.61035 0.401645L6.79402 2.12803C6.94094 2.11907 7.08947 2.11759 7.23962 2.12359C7.38977 2.1296 7.53406 2.14474 7.67249 2.16903L9.01601 0.554259L12.0169 2.4787L11.1099 4.37339C11.1988 4.49489 11.2751 4.62117 11.3386 4.75221C11.4022 4.88324 11.4605 5.01739 11.5137 5.15466L13.5765 5.51016L13.4066 9.07706L11.3159 9.24535C11.284 9.31516 11.249 9.37977 11.2109 9.43917L10.9735 9.80931C10.9354 9.86871 10.8867 9.92457 10.8275 9.97688L11.5468 11.9472L8.37601 13.5896L7.20597 11.872C7.05906 11.8809 6.91052 11.8824 6.76037 11.8764C6.61022 11.8704 6.46593 11.8553 6.3275 11.831L4.98398 13.4457L1.98305 11.5213ZM3.64119 11.0369L4.7188 11.728L5.84163 10.3973C6.17042 10.505 6.50073 10.5652 6.83256 10.5781C7.16438 10.591 7.4948 10.5611 7.8238 10.4883L8.81378 11.9164L9.94356 11.3253L9.3419 9.68195C9.46942 9.58316 9.58769 9.46877 9.69672 9.33877C9.80575 9.20878 9.90715 9.07067 10.0009 8.92444C10.0947 8.77821 10.1779 8.62844 10.2506 8.47512C10.3232 8.3218 10.3778 8.16658 10.4144 8.00948L12.1589 7.87069L12.2248 6.59734L10.5051 6.30711C10.4399 5.96861 10.3321 5.65126 10.182 5.35507C10.0319 5.05887 9.83928 4.78383 9.60427 4.52993L10.3588 2.96308L9.2812 2.27203L8.15836 3.6027C7.82957 3.49503 7.49926 3.43476 7.16743 3.42188C6.83561 3.409 6.5052 3.43894 6.1762 3.51171L5.18622 2.08365L4.05643 2.67469L4.66689 4.30434C4.53351 4.41227 4.41377 4.52895 4.30767 4.65437C4.20157 4.77979 4.0987 4.92019 3.99907 5.07556C3.90529 5.22178 3.82354 5.36927 3.75382 5.51802C3.6841 5.66678 3.62801 5.82428 3.58557 5.99052L1.84105 6.12931L1.77523 7.40266L3.49488 7.69289C3.56014 8.03139 3.66785 8.34873 3.81799 8.64493C3.96813 8.94113 4.16071 9.21617 4.39573 9.47007L3.64119 11.0369ZM5.79651 8.93673C6.32395 9.27496 6.89423 9.37627 7.50737 9.24066C8.1205 9.10505 8.59703 8.77221 8.93696 8.24214C9.27689 7.71207 9.38058 7.14013 9.24803 6.52632C9.11548 5.91252 8.78548 5.4365 8.25805 5.09826C7.72152 4.7542 7.14896 4.65142 6.54037 4.78995C5.93178 4.92848 5.45752 5.26278 5.11759 5.79285C4.77767 6.32292 4.67171 6.8934 4.79971 7.50429C4.92771 8.11518 5.25998 8.59266 5.79651 8.93673Z" fill="#1C1B1F"/>
</svg>
