<svg width="81" height="15" viewBox="0 0 81 15" fill="none" xmlns="http://www.w3.org/2000/svg">
<mask id="mask0_183_2598" style="mask-type:alpha" maskUnits="userSpaceOnUse" x="0" y="0" width="14" height="15">
<rect width="14" height="15" fill="#D9D9D9"/>
</mask>
<g mask="url(#mask0_183_2598)">
<path d="M4.0835 13.125C3.76266 13.125 3.48801 13.0026 3.25954 12.7578C3.03107 12.513 2.91683 12.2188 2.91683 11.875V3.75H2.3335V2.5H5.25016V1.875H8.75016V2.5H11.6668V3.75H11.0835V11.875C11.0835 12.2188 10.9693 12.513 10.7408 12.7578C10.5123 13.0026 10.2377 13.125 9.91683 13.125H4.0835ZM9.91683 3.75H4.0835V11.875H9.91683V3.75ZM5.25016 10.625H6.41683V5H5.25016V10.625ZM7.5835 10.625H8.75016V5H7.5835V10.625Z" fill="#DD5B46"/>
</g>
<path d="M18.4169 12.0994V10.8494H18.8111C19.0076 10.8494 19.1662 10.8258 19.2869 10.7784C19.4077 10.7287 19.5036 10.6565 19.5746 10.5618C19.648 10.4647 19.7095 10.344 19.7592 10.1996L19.848 9.96165L17.206 4.72727H18.7969L20.5085 8.30682L21.9396 4.72727H23.5092L21.0021 10.5724C20.8814 10.8423 20.7382 11.0933 20.5724 11.3253C20.4091 11.5573 20.1996 11.7443 19.9439 11.8864C19.6882 12.0284 19.3615 12.0994 18.9638 12.0994H18.4169ZM23.8865 13.598V10.7997H24.3056C24.4263 10.724 24.5234 10.6032 24.5968 10.4375C24.6725 10.2718 24.7341 10.0765 24.7814 9.85156C24.8311 9.62666 24.869 9.384 24.8951 9.12358C24.9235 8.8608 24.9483 8.59564 24.9696 8.32812L25.1117 6.54545H29.2949V10.7997H30.1401V13.598H28.6983V12H25.3638V13.598H23.8865ZM25.8113 10.7997H27.8674V7.71023H26.3972L26.3404 8.32812C26.3001 8.91051 26.2421 9.4053 26.1664 9.8125C26.0906 10.2173 25.9722 10.5464 25.8113 10.7997ZM32.5771 12.103C32.229 12.103 31.9189 12.0426 31.6467 11.9219C31.3744 11.7988 31.159 11.6177 31.0004 11.3786C30.8441 11.1371 30.766 10.8364 30.766 10.4766C30.766 10.1735 30.8216 9.91903 30.9329 9.71307C31.0442 9.5071 31.1957 9.34138 31.3874 9.21591C31.5792 9.09044 31.797 8.99574 32.0408 8.93182C32.2871 8.8679 32.5451 8.82292 32.815 8.79688C33.1322 8.76373 33.3879 8.73295 33.582 8.70455C33.7762 8.67377 33.917 8.62879 34.0046 8.5696C34.0922 8.51042 34.136 8.42282 34.136 8.30682V8.28551C34.136 8.06061 34.065 7.8866 33.9229 7.76349C33.7833 7.64039 33.5844 7.57884 33.3263 7.57884C33.0541 7.57884 32.8375 7.6392 32.6765 7.75994C32.5155 7.87831 32.409 8.02746 32.3569 8.20739L30.9577 8.09375C31.0288 7.76231 31.1684 7.47585 31.3768 7.23438C31.5851 6.99053 31.8538 6.8035 32.1829 6.6733C32.5143 6.54072 32.8978 6.47443 33.3335 6.47443C33.6365 6.47443 33.9265 6.50994 34.2035 6.58097C34.4828 6.65199 34.7302 6.76207 34.9457 6.91122C35.1635 7.06037 35.3351 7.25213 35.4606 7.48651C35.5861 7.71851 35.6488 7.99669 35.6488 8.32102V12H34.2141V11.2436H34.1715C34.0839 11.4141 33.9667 11.5644 33.82 11.6946C33.6732 11.8224 33.4968 11.9231 33.2908 11.9964C33.0849 12.0675 32.8469 12.103 32.5771 12.103ZM33.0103 11.0589C33.2328 11.0589 33.4293 11.0152 33.5998 10.9276C33.7702 10.8376 33.904 10.7169 34.0011 10.5653C34.0981 10.4138 34.1467 10.2422 34.1467 10.0504V9.47159C34.0993 9.50237 34.0342 9.53078 33.9513 9.55682C33.8709 9.58049 33.7797 9.60298 33.6779 9.62429C33.5761 9.64323 33.4743 9.66098 33.3725 9.67756C33.2707 9.69176 33.1784 9.70478 33.0955 9.71662C32.918 9.74266 32.7629 9.78409 32.6303 9.84091C32.4978 9.89773 32.3948 9.97467 32.3214 10.0717C32.248 10.1664 32.2113 10.2848 32.2113 10.4268C32.2113 10.6328 32.2859 10.7902 32.435 10.8991C32.5865 11.0057 32.7783 11.0589 33.0103 11.0589ZM36.5028 12L36.4957 10.7997H36.6768C36.8047 10.7997 36.9148 10.7689 37.0071 10.7074C37.1018 10.6435 37.1799 10.5405 37.2415 10.3984C37.303 10.2564 37.3516 10.0682 37.3871 9.83381C37.4226 9.59706 37.4463 9.30587 37.4581 8.96023L37.5469 6.54545H41.6946V12H40.2528V7.73509H38.907L38.8217 9.40057C38.8004 9.85748 38.7448 10.2505 38.6548 10.5795C38.5672 10.9086 38.4453 11.1785 38.2891 11.3892C38.1328 11.5975 37.9446 11.7514 37.7244 11.8509C37.5043 11.9503 37.2486 12 36.9574 12H36.5028ZM44.3127 10.0043L46.2765 6.54545H47.7679V12H46.3262V8.53054L44.3695 12H42.8674V6.54545H44.3127V10.0043ZM48.4329 7.73509V6.54545H53.3761V7.73509H51.6183V12H50.1765V7.73509H48.4329ZM55.2413 8.22159H56.8713C57.5933 8.22159 58.1568 8.39441 58.5616 8.74006C58.9664 9.08333 59.1689 9.54261 59.1689 10.1179C59.1689 10.492 59.0777 10.821 58.8954 11.1051C58.7131 11.3868 58.4503 11.607 58.1071 11.7656C57.7638 11.9219 57.3519 12 56.8713 12H54.2931V6.54545H55.7385V10.8104H56.8713C57.1246 10.8104 57.3329 10.7464 57.4963 10.6186C57.6596 10.4908 57.7425 10.3274 57.7449 10.1286C57.7425 9.91785 57.6596 9.74621 57.4963 9.61364C57.3329 9.47869 57.1246 9.41122 56.8713 9.41122H55.2413V8.22159ZM62.4865 6.54545H63.9318V10.7997H65.4695V6.54545H66.9148V10.7997H68.4524V6.54545H69.8977V12H62.4865V6.54545ZM72.6259 12.103C72.2779 12.103 71.9677 12.0426 71.6955 11.9219C71.4232 11.7988 71.2078 11.6177 71.0492 11.3786C70.8929 11.1371 70.8148 10.8364 70.8148 10.4766C70.8148 10.1735 70.8704 9.91903 70.9817 9.71307C71.093 9.5071 71.2445 9.34138 71.4363 9.21591C71.628 9.09044 71.8458 8.99574 72.0897 8.93182C72.3359 8.8679 72.5939 8.82292 72.8638 8.79688C73.181 8.76373 73.4367 8.73295 73.6309 8.70455C73.825 8.67377 73.9659 8.62879 74.0534 8.5696C74.141 8.51042 74.1848 8.42282 74.1848 8.30682V8.28551C74.1848 8.06061 74.1138 7.8866 73.9718 7.76349C73.8321 7.64039 73.6332 7.57884 73.3752 7.57884C73.1029 7.57884 72.8863 7.6392 72.7253 7.75994C72.5643 7.87831 72.4578 8.02746 72.4057 8.20739L71.0066 8.09375C71.0776 7.76231 71.2173 7.47585 71.4256 7.23438C71.6339 6.99053 71.9026 6.8035 72.2317 6.6733C72.5632 6.54072 72.9467 6.47443 73.3823 6.47443C73.6853 6.47443 73.9753 6.50994 74.2523 6.58097C74.5317 6.65199 74.7791 6.76207 74.9945 6.91122C75.2123 7.06037 75.3839 7.25213 75.5094 7.48651C75.6349 7.71851 75.6976 7.99669 75.6976 8.32102V12H74.263V11.2436H74.2203C74.1328 11.4141 74.0156 11.5644 73.8688 11.6946C73.722 11.8224 73.5456 11.9231 73.3397 11.9964C73.1337 12.0675 72.8958 12.103 72.6259 12.103ZM73.0591 11.0589C73.2817 11.0589 73.4782 11.0152 73.6486 10.9276C73.8191 10.8376 73.9528 10.7169 74.0499 10.5653C74.147 10.4138 74.1955 10.2422 74.1955 10.0504V9.47159C74.1481 9.50237 74.083 9.53078 74.0002 9.55682C73.9197 9.58049 73.8285 9.60298 73.7267 9.62429C73.6249 9.64323 73.5231 9.66098 73.4213 9.67756C73.3195 9.69176 73.2272 9.70478 73.1444 9.71662C72.9668 9.74266 72.8117 9.78409 72.6792 9.84091C72.5466 9.89773 72.4436 9.97467 72.3702 10.0717C72.2968 10.1664 72.2601 10.2848 72.2601 10.4268C72.2601 10.6328 72.3347 10.7902 72.4838 10.8991C72.6354 11.0057 72.8271 11.0589 73.0591 11.0589ZM80.6071 6.54545V7.73509H78.3414V12H76.8713V6.54545H80.6071Z" fill="#DD5B46"/>
</svg>
